<?xml version="1.0" encoding="utf-8"?>
<!-- Generator: Adobe Illustrator 16.0.0, SVG Export Plug-In . SVG Version: 6.00 Build 0)  -->
<!DOCTYPE svg PUBLIC "-//W3C//DTD SVG 1.1//EN" "http://www.w3.org/Graphics/SVG/1.1/DTD/svg11.dtd">
<svg version="1.1" id="Layer_1" xmlns="http://www.w3.org/2000/svg" xmlns:xlink="http://www.w3.org/1999/xlink" x="0px" y="0px"
	 width="185.393px" height="24px" viewBox="0 0 185.393 24" enable-background="new 0 0 185.393 24" xml:space="preserve">
<g>
	<path fill="#4D4F73" stroke="#FFFFFF" stroke-width="0.25" stroke-miterlimit="10" d="M1.242,19.818l1.931-0.724
		c0.628,1.814,2.115,2.886,4.209,2.886c2.558,0,4.23-1.65,4.23-4.278V16.12h-0.23c-1.023,1.303-2.442,2.094-4.279,2.094
		c-3.535,0-6.093-2.582-6.093-6.186c0-3.628,2.558-6.302,6.093-6.302c1.883,0,3.302,0.814,4.302,2.116h0.232V6.167h1.907v11.535
		c0,3.674-2.466,6.022-6.256,6.022C4.266,23.725,2.033,22.26,1.242,19.818z M11.685,12.028c0-2.651-1.859-4.581-4.372-4.581
		c-2.535,0-4.372,1.93-4.372,4.581c0,2.582,1.837,4.488,4.372,4.488S11.685,14.609,11.685,12.028z"/>
	<path fill="#4D4F73" stroke="#FFFFFF" stroke-width="0.25" stroke-miterlimit="10" d="M16.476,12.028
		c0-3.698,2.604-6.325,6.302-6.325c3.675,0,6.303,2.627,6.303,6.325c0,3.72-2.628,6.348-6.303,6.348
		C19.079,18.376,16.476,15.748,16.476,12.028z M27.15,12.028c0-2.651-1.837-4.581-4.372-4.581c-2.558,0-4.372,1.93-4.372,4.581
		c0,2.674,1.814,4.604,4.372,4.604C25.313,16.632,27.15,14.702,27.15,12.028z"/>
	<path fill="#4D4F73" stroke="#FFFFFF" stroke-width="0.25" stroke-miterlimit="10" d="M32.033,6.167h1.859v1.558h0.232
		c0.649-1.209,1.884-2.023,3.418-2.023c1.649,0,3.162,0.907,3.837,2.279h0.209c0.813-1.372,2.163-2.256,3.93-2.256
		c2.768,0,4.744,2.14,4.744,5.186v7h-1.928v-7.023c0-2-1.279-3.441-3.047-3.441c-1.884,0-3.209,1.442-3.209,3.441v7.023h-1.931
		v-7.023c0-2.069-1.209-3.441-3.021-3.441c-1.907,0-3.163,1.372-3.163,3.441v7.023h-1.931V6.167L32.033,6.167z"/>
	<path fill="#4D4F73" stroke="#FFFFFF" stroke-width="0.25" stroke-miterlimit="10" d="M53.011,11.888
		c0-3.581,2.604-6.186,6.231-6.186c3.582,0,6.162,2.604,6.162,6.209c0,0.232,0,0.511-0.021,0.767H54.988
		c0.279,2.372,2,3.953,4.396,3.953c1.744,0,3.278-0.884,4.021-2.277l1.604,0.813c-0.953,2-3.069,3.209-5.674,3.209
		C55.661,18.376,53.011,15.655,53.011,11.888z M63.383,10.981c-0.35-2.116-2-3.535-4.232-3.535c-2.163,0-3.813,1.418-4.139,3.535
		H63.383z"/>
	<path fill="#4D4F73" stroke="#FFFFFF" stroke-width="0.25" stroke-miterlimit="10" d="M67.871,13.936h1.859
		c0.023,1.674,1.326,2.813,3.535,2.813c1.769,0,2.907-0.744,2.907-1.978c0-1.535-1.605-1.649-3.372-1.883
		c-2.188-0.257-4.722-0.839-4.722-3.513c0-2.279,1.906-3.674,4.722-3.674c2.93,0,4.93,1.558,4.93,3.977h-1.883
		c-0.022-1.442-1.256-2.349-3.07-2.349c-1.696,0-2.858,0.767-2.858,1.977c0,1.465,1.582,1.581,3.325,1.791
		c2.209,0.279,4.743,0.837,4.743,3.65c0,2.303-1.791,3.628-4.789,3.628C69.824,18.376,67.871,16.727,67.871,13.936z"/>
	<path fill="#7EBF88" d="M79.779,15.818c0-1.373,1.023-2.351,2.441-2.351s2.441,0.978,2.441,2.351c0,1.371-1.022,2.349-2.441,2.349
		S79.779,17.189,79.779,15.818z"/>
	<path fill="#4D4F73" stroke="#FFFFFF" stroke-width="0.25" stroke-miterlimit="10" d="M88.011,7.703h-1.883V6.167h1.883V3.796
		c0-2.093,1.278-3.442,3.14-3.442c0.675,0,1.255,0.116,1.791,0.279v1.674c-0.396-0.116-0.813-0.209-1.278-0.209
		c-1.022,0-1.722,0.744-1.722,1.884v2.186h2.979v1.535h-2.979v10.208h-1.93L88.011,7.703L88.011,7.703z"/>
	<path fill="#4D4F73" stroke="#FFFFFF" stroke-width="0.25" stroke-miterlimit="10" d="M95.406,2.54
		c0-0.791,0.582-1.349,1.396-1.349s1.372,0.558,1.372,1.349c0,0.814-0.559,1.395-1.372,1.395S95.406,3.354,95.406,2.54z
		 M95.824,6.167h1.931v11.744h-1.931V6.167z"/>
	<path fill="#4D4F73" stroke="#FFFFFF" stroke-width="0.25" stroke-miterlimit="10" d="M101.523,6.167h1.931v1.605h0.232
		c0.837-1.303,2.14-2.047,3.697-2.047c2.977,0,4.883,2.186,4.883,5.163v7.023h-1.93v-7.023c0-1.977-1.188-3.418-3.209-3.418
		c-1.979,0-3.676,1.535-3.676,3.582v6.86h-1.931L101.523,6.167L101.523,6.167z"/>
	<path fill="#4D4F73" stroke="#FFFFFF" stroke-width="0.25" stroke-miterlimit="10" d="M114.661,14.936c0-2.068,1.769-3.604,5.257-4
		l3.255-0.395v-0.465c0-1.581-1.14-2.604-3.069-2.604c-1.768,0-2.93,0.86-2.905,2.326h-1.954c0-2.488,1.932-4.07,4.885-4.07
		c3.046,0,4.977,1.721,4.977,4.396v7.79h-1.931v-1.725h-0.209c-0.837,1.351-2.209,2.095-4.094,2.095
		C116.337,18.283,114.661,16.958,114.661,14.936z M123.173,13.236V12.19l-3.255,0.373c-2.396,0.304-3.325,1.231-3.325,2.324
		c0,1.116,0.977,1.791,2.558,1.791C121.546,16.68,123.173,15.214,123.173,13.236z"/>
	<path fill="#4D4F73" stroke="#FFFFFF" stroke-width="0.25" stroke-miterlimit="10" d="M128.452,6.167h1.931v1.605h0.23
		c0.838-1.303,2.142-2.047,3.697-2.047c2.978,0,4.884,2.186,4.884,5.163v7.023h-1.93v-7.023c0-1.977-1.188-3.418-3.21-3.418
		c-1.978,0-3.674,1.535-3.674,3.582v6.86h-1.931L128.452,6.167L128.452,6.167z"/>
	<path fill="#4D4F73" stroke="#FFFFFF" stroke-width="0.25" stroke-miterlimit="10" d="M141.918,12.028
		c0-3.674,2.559-6.325,6.115-6.325c2.885,0,5.278,1.814,5.722,4.325l-1.885,0.256c-0.418-1.698-2.021-2.837-3.813-2.837
		c-2.396,0-4.231,1.883-4.209,4.581c0,2.72,1.79,4.604,4.187,4.604c1.837,0,3.396-1.14,3.859-2.79l1.907,0.256
		c-0.535,2.488-2.954,4.278-5.769,4.278C144.477,18.376,141.896,15.702,141.918,12.028z"/>
	<path fill="#4D4F73" stroke="#FFFFFF" stroke-width="0.25" stroke-miterlimit="10" d="M156.151,11.888
		c0-3.581,2.604-6.186,6.232-6.186c3.581,0,6.163,2.604,6.163,6.209c0,0.232,0,0.511-0.023,0.767h-10.395
		c0.276,2.372,1.999,3.953,4.395,3.953c1.744,0,3.279-0.884,4.023-2.277l1.604,0.813c-0.954,2-3.069,3.209-5.675,3.209
		C158.802,18.376,156.151,15.655,156.151,11.888z M166.523,10.981c-0.349-2.116-2-3.535-4.231-3.535
		c-2.162,0-3.813,1.418-4.141,3.535H166.523z"/>
	<path fill="#7EBF88" d="M178.661,19.626v2.231h-1.952V19.58c-3.535-0.419-5.629-2.581-5.629-5.837h2.094
		c0,2.534,1.791,4.046,4.859,4.046c2.674,0,4.231-1.162,4.231-2.999c0-2.257-2.279-2.628-4.744-3.023
		c-2.953-0.465-6.209-1.232-6.209-4.791c0-2.744,1.953-4.604,5.396-4.86V0h1.953v2.163c3.35,0.349,5.35,2.372,5.35,5.488h-2.069
		c0.022-2.325-1.604-3.697-4.419-3.697c-2.649,0-4.093,1.139-4.093,2.907c0,2.163,2.188,2.558,4.604,2.93
		c2.978,0.488,6.35,1.139,6.35,4.859C184.383,17.557,182.289,19.439,178.661,19.626z"/>
</g>
</svg>
